<svg xmlns="http://www.w3.org/2000/svg" width="18" height="18" viewBox="0 0 18 18">
    <g fill="#2175D9" fill-rule="nonzero">
        <path d="M0 3.289h4.386v1.096H0zM0 0h4.386v2.193H0zM13.157 9.868v-3.29l-4.385 3.29v-3.29l-4.386 3.29V5.482H0v12.061h17.543V6.58l-4.386 3.29zm-5.482 4.386H5.482v-1.097h2.193v1.097zm0-2.193H5.482v-1.096h2.193v1.096zm4.386 2.193H9.868v-1.097h2.193v1.097zm0-2.193H9.868v-1.096h2.193v1.096zm4.386 2.193h-2.193v-1.097h2.193v1.097zm0-2.193h-2.193v-1.096h2.193v1.096z"/>
    </g>
</svg>
