<svg xmlns="http://www.w3.org/2000/svg" width="14" height="18" viewBox="0 0 14 18">
    <g fill="#2175D9" fill-rule="nonzero">
        <path d="M6.891 8.803c2.002 0 3.624-1.97 3.624-4.401S9.983 0 6.891 0c-3.09 0-3.623 1.97-3.623 4.402 0 2.43 1.622 4.401 3.623 4.401zM13.728 15.346c-.067-4.235-.62-5.441-4.852-6.205 0 0-.596.76-1.985.76-1.388 0-1.984-.76-1.984-.76-4.186.755-4.773 1.944-4.85 6.068-.006.336-.01.354-.01.315v.445S1.055 18 6.891 18c5.837 0 6.844-2.031 6.844-2.031v-.33a2.726 2.726 0 0 1-.007-.293z"/>
    </g>
</svg>
