<?xml version="1.0" encoding="UTF-8"?>
<svg width="13px" height="23px" viewBox="0 0 13 23" version="1.1" xmlns="http://www.w3.org/2000/svg" xmlns:xlink="http://www.w3.org/1999/xlink">
    <!-- Generator: Sketch 45.1 (43504) - http://www.bohemiancoding.com/sketch -->
    <title>ic-fb</title>
    <desc>Created with Sketch.</desc>
    <defs></defs>
    <g id="Symbols" stroke="none" stroke-width="1" fill="none" fill-rule="evenodd">
        <g id="footer" transform="translate(-1554.000000, -509.000000)" fill="#FEFEFE">
            <g id="social">
                <g transform="translate(1468.000000, 509.000000)">
                    <g id="ic-fb" transform="translate(86.000000, 0.000000)">
                        <path d="M9.57592501,3.88198717 C10.2879772,3.85697707 11.0000294,3.87610244 11.7150239,3.87463126 L12.0077892,3.87463126 L12.0077892,0.168723269 C11.6282242,0.130472532 11.2295338,0.0760387898 10.8323146,0.0554422388 C10.0996659,0.0245474124 9.36848832,-0.0122321429 8.63583958,0.00395086147 C7.52068346,0.0274897768 6.46290345,0.299658486 5.54047221,0.961690481 C4.48122101,1.72376287 3.90010404,2.79331233 3.67795553,4.05558667 C3.58674223,4.57785636 3.56320331,5.11630904 3.54849149,5.64740582 C3.52936612,6.47862377 3.54554913,7.30984172 3.54554913,8.14253085 L3.54554913,8.45442148 L0,8.45442148 L0,12.5943282 L3.52642376,12.5943282 L3.52642376,23 L7.83404527,23 L7.83404527,12.6119824 L11.3486996,12.6119824 C11.529655,11.2334847 11.7047257,9.87116995 11.8900946,8.45147912 C11.6076276,8.45147912 11.3531131,8.45000793 11.1000698,8.45147912 C10.0996659,8.45442148 7.80609281,8.45147912 7.80609281,8.45147912 C7.80609281,8.45147912 7.81639109,6.40065111 7.83993,5.50911469 C7.87523837,4.28803346 8.59906002,3.91729554 9.57592501,3.88198717" id="Fill-1"></path>
                    </g>
                </g>
            </g>
        </g>
    </g>
</svg>