<?xml version="1.0" encoding="UTF-8"?>
<svg width="15px" height="15px" viewBox="0 0 15 15" version="1.1" xmlns="http://www.w3.org/2000/svg" xmlns:xlink="http://www.w3.org/1999/xlink">
    <!-- Generator: Sketch 45.1 (43504) - http://www.bohemiancoding.com/sketch -->
    <title>ic-linkedin</title>
    <desc>Created with Sketch.</desc>
    <defs>
        <polygon id="path-1" points="3.4901 15 0 15 0 0.512 3.4901 0.512"></polygon>
        <polygon id="path-3" points="0.1397 10 9.521 10 9.521 0.0812 0.1397 0.0812"></polygon>
    </defs>
    <g id="Symbols" stroke="none" stroke-width="1" fill="none" fill-rule="evenodd">
        <g id="footer" transform="translate(-1468.000000, -513.000000)">
            <g id="social">
                <g transform="translate(1468.000000, 509.000000)">
                    <g id="ic-linkedin" transform="translate(0.000000, 3.000000)">
                        <g id="Page-1">
                            <g id="Group-3" transform="translate(0.000000, 0.488300)">
                                <mask id="mask-2" fill="white">
                                    <use xlink:href="#path-1"></use>
                                </mask>
                                <g id="Clip-2"></g>
                                <path d="M1.7461,0.5117 C2.7091,0.5117 3.4901,1.2927 3.4901,2.2537 C3.4901,3.2167 2.7091,3.9997 1.7461,3.9997 C0.7801,3.9997 0.0001,3.2167 0.0001,2.2537 C0.0001,1.2927 0.7801,0.5117 1.7461,0.5117 L1.7461,0.5117 Z M0.2391,15.0007 L3.2521,15.0007 L3.2521,5.3227 L0.2391,5.3227 L0.2391,15.0007 Z" id="Fill-1" fill="#FEFEFE" mask="url(#mask-2)"></path>
                            </g>
                            <g id="Group-6" transform="translate(5.000000, 5.488300)">
                                <mask id="mask-4" fill="white">
                                    <use xlink:href="#path-3"></use>
                                </mask>
                                <g id="Clip-5"></g>
                                <path d="M0.1397,0.3222 L3.0257,0.3222 L3.0257,1.6442 L3.0657,1.6442 C3.4667,0.8832 4.4497,0.0812 5.9127,0.0812 C8.9587,0.0812 9.5217,2.0842 9.5217,4.6912 L9.5217,10.0002 L6.5147,10.0002 L6.5147,5.2942 C6.5147,4.1722 6.4927,2.7272 4.9517,2.7272 C3.3847,2.7272 3.1467,3.9492 3.1467,5.2112 L3.1467,10.0002 L0.1397,10.0002 L0.1397,0.3222 Z" id="Fill-4" fill="#FEFEFE" mask="url(#mask-4)"></path>
                            </g>
                        </g>
                    </g>
                </g>
            </g>
        </g>
    </g>
</svg>