<?xml version="1.0" encoding="UTF-8"?>
<svg width="17px" height="14px" viewBox="0 0 17 14" version="1.1" xmlns="http://www.w3.org/2000/svg" xmlns:xlink="http://www.w3.org/1999/xlink">
    <!-- Generator: Sketch 45.1 (43504) - http://www.bohemiancoding.com/sketch -->
    <title>ic-twitter</title>
    <desc>Created with Sketch.</desc>
    <defs>
        <polygon id="path-1" points="0 13.9306218 0 0.000107142857 16.9755625 0.000107142857 16.9755625 13.9306218"></polygon>
    </defs>
    <g id="Symbols" stroke="none" stroke-width="1" fill="none" fill-rule="evenodd">
        <g id="footer" transform="translate(-1596.000000, -514.000000)">
            <g id="social">
                <g transform="translate(1468.000000, 509.000000)">
                    <g id="ic-twitter" transform="translate(128.000000, 5.000000)">
                        <g id="Page-1">
                            <mask id="mask-2" fill="white">
                                <use xlink:href="#path-1"></use>
                            </mask>
                            <g id="Clip-2"></g>
                            <path d="M5.14855625,10.9013571 C3.33593125,10.8370714 2.20330625,9.52564286 1.90261875,8.46064286 C2.40730625,8.55707143 2.90455625,8.53778571 3.39861875,8.41457143 C3.41030625,8.41242857 3.42305625,8.40385714 3.44749375,8.391 C2.46680625,8.16064286 1.70924375,7.63135714 1.18330625,6.77742857 C0.83268125,6.21064286 0.66586875,5.58921429 0.67118125,4.90671429 C1.16205625,5.17135714 1.67311875,5.31921429 2.22349375,5.33421429 C1.48611875,4.7985 0.99099375,4.09671429 0.78805625,3.19992857 C0.58724375,2.30635714 0.71686875,1.45457143 1.16205625,0.653142857 C3.05118125,2.89564286 5.44074375,4.12564286 8.35730625,4.32707143 C8.33605625,4.18885714 8.31374375,4.06564286 8.30099375,3.94242857 C8.20324375,3.11528571 8.36686875,2.34385714 8.80993125,1.64207143 C9.36561875,0.765642857 10.1582438,0.219214286 11.1761188,0.0531428571 C12.3480563,-0.140785714 13.3723063,0.196714286 14.2297438,1.0335 C14.2871188,1.09028571 14.3349313,1.10742857 14.4156813,1.09028571 C15.1318063,0.932785714 15.8075563,0.671357143 16.4439938,0.302785714 C16.4599313,0.294214286 16.4748063,0.285642857 16.4907438,0.278142857 C16.4939313,0.276 16.4992438,0.277071429 16.5130563,0.277071429 C16.2378688,1.09564286 15.7353063,1.72564286 15.0202438,2.19064286 C15.6959938,2.11671429 16.3398688,1.93564286 16.9624938,1.6635 C16.9678063,1.66992857 16.9720563,1.67528571 16.9763063,1.68064286 C16.8434938,1.85635714 16.7138688,2.03635714 16.5757438,2.20778571 C16.2049313,2.66742857 15.7809938,3.07135714 15.3081813,3.42278571 C15.2667438,3.45278571 15.2486813,3.48064286 15.2497438,3.53207143 C15.2688688,4.05492857 15.2486813,4.57671429 15.1849313,5.09528571 C15.0499938,6.18814286 14.7482438,7.22957143 14.2860563,8.226 C13.8079313,9.25457143 13.1842438,10.1835 12.4001188,10.9999286 C11.0719938,12.3842143 9.47080625,13.2777857 7.60611875,13.6924286 C6.96755625,13.8338571 6.31943125,13.9077857 5.66386875,13.926 C3.65255625,13.9849286 1.79318125,13.4802857 0.08149375,12.4152857 C0.06024375,12.4024286 0.03793125,12.3863571 -0.00031875,12.3606429 C1.21836875,12.4935 2.37543125,12.336 3.48893125,11.8763571 C4.08074375,11.6331429 4.62899375,11.3117143 5.14855625,10.9013571" id="Fill-1" fill="#FEFEFE" mask="url(#mask-2)"></path>
                        </g>
                    </g>
                </g>
            </g>
        </g>
    </g>
</svg>