<?xml version="1.0" encoding="UTF-8"?>
<svg width="24px" height="17px" viewBox="0 0 24 17" version="1.1" xmlns="http://www.w3.org/2000/svg" xmlns:xlink="http://www.w3.org/1999/xlink">
    <!-- Generator: Sketch 45.1 (43504) - http://www.bohemiancoding.com/sketch -->
    <title>ic-youtube</title>
    <desc>Created with Sketch.</desc>
    <defs></defs>
    <g id="Symbols" stroke="none" stroke-width="1" fill="none" fill-rule="evenodd">
        <g id="footer" transform="translate(-1505.000000, -512.000000)" fill="#FEFEFE">
            <g id="social">
                <g transform="translate(1468.000000, 509.000000)">
                    <g id="ic-youtube" transform="translate(37.000000, 3.000000)">
                        <path d="M9.07200634,12.2177573 C11.5562736,10.9304417 14.0183202,9.65497714 16.5114757,8.36025468 C14.0153574,7.05812534 11.5518295,5.77229113 9.07200634,4.47756867 L9.07200634,12.2177573 Z M2.50951148,16.5107844 C1.60587224,16.2145093 0.997026776,15.6219589 0.671124096,14.7242452 C-0.125856092,12.5362531 -0.359913471,3.37542506 1.17182912,1.5725907 C1.69623616,0.956338358 2.37174353,0.594882659 3.17464922,0.508962862 C7.304725,0.0660314929 20.0712218,0.128249277 21.542228,0.658581819 C22.4043887,0.968189364 23.0161969,1.53259355 23.3495065,2.39475427 C24.2205554,4.65829652 24.2501829,12.8932647 23.2354405,15.0738499 C22.9584232,15.6649188 22.508085,16.0811854 21.9392367,16.3819047 C20.3986058,17.1877732 4.5360336,17.1788849 2.50951148,16.5107844 L2.50951148,16.5107844 Z" id="Fill-1"></path>
                    </g>
                </g>
            </g>
        </g>
    </g>
</svg>