<?xml version="1.0" encoding="UTF-8"?>
<svg width="11px" height="10px" viewBox="0 0 11 10" version="1.1" xmlns="http://www.w3.org/2000/svg" xmlns:xlink="http://www.w3.org/1999/xlink">
    <!-- Generator: Sketch 45.1 (43504) - http://www.bohemiancoding.com/sketch -->
    <title>support</title>
    <desc>Created with Sketch.</desc>
    <defs></defs>
    <g id="Symbols" stroke="none" stroke-width="1" fill="none" fill-rule="evenodd">
        <g id="header" transform="translate(-1597.000000, -12.000000)" fill="#FFFFFF">
            <g id="top">
                <g transform="translate(1535.000000, 9.000000)">
                    <g id="ic-support" transform="translate(62.000000, 3.000000)">
                        <g>
                            <path d="M2.32152381,4.08085106 C2.32152381,3.8787234 2.16228571,3.7106383 1.9632381,3.7106383 C1.96114286,3.7106383 1.96114286,3.7106383 1.95904762,3.7106383 C0.877904762,3.7106383 0,4.60212766 0,5.7 C0,6.79787234 0.877904762,7.6893617 1.95904762,7.6893617 C1.96114286,7.6893617 1.96114286,7.6893617 1.9632381,7.6893617 C2.16228571,7.6893617 2.32152381,7.5212766 2.32152381,7.31914894 L2.32152381,4.08085106 Z" id="XMLID_5_" fill-rule="nonzero"></path>
                            <path d="M8.15466667,4.08085106 C8.15466667,3.8787234 8.31390476,3.7106383 8.51295238,3.7106383 C8.51504762,3.7106383 8.51504762,3.7106383 8.51714286,3.7106383 C9.59828571,3.7106383 10.4761905,4.60212766 10.4761905,5.7 C10.4761905,6.79787234 9.59828571,7.6893617 8.51714286,7.6893617 C8.51504762,7.6893617 8.51504762,7.6893617 8.51295238,7.6893617 C8.31390476,7.6893617 8.15466667,7.5212766 8.15466667,7.31914894 L8.15466667,4.08085106 Z" id="XMLID_4_" fill-rule="nonzero"></path>
                            <path d="M9.52704762,5.3212766 C9.32590476,5.3212766 9.16247619,5.14893617 9.16247619,4.93404255 C9.16247619,2.64255319 7.40457143,1.07659574 5.24228571,1.07659574 C3.08,1.07659574 1.32209524,2.64468085 1.32209524,4.93404255 C1.32209524,5.14680851 1.15866667,5.3212766 0.95752381,5.3212766 C0.756380952,5.3212766 0.592952381,5.14893617 0.592952381,4.93404255 C0.592952381,2.21702128 2.67980952,0.00638297872 5.24228571,0.00638297872 C7.8047619,0.00638297872 9.89161905,2.21702128 9.89161905,4.93404255 C9.89161905,5.14893617 9.72819048,5.3212766 9.52704762,5.3212766 Z" id="XMLID_3_" fill-rule="nonzero"></path>
                            <path d="M6.17047619,9.46595745 C6.04895238,9.46595745 5.92114286,9.45957447 5.78914286,9.44893617 L5.83104762,8.95531915 C8.18190476,9.16382979 8.70152381,7.18297872 8.72247619,7.09787234 L9.196,7.21702128 C9.18971429,7.24255319 9.03885714,7.85106383 8.54228571,8.42765957 C8.12533333,8.91702128 7.38361905,9.46595745 6.17047619,9.46595745 Z" id="XMLID_2_" fill-rule="nonzero"></path>
                            <ellipse id="XMLID_1_" fill-rule="nonzero" cx="5.74514286" cy="9.21914894" rx="1" ry="1"></ellipse>
                        </g>
                    </g>
                </g>
            </g>
        </g>
    </g>
</svg>