<?xml version="1.0" encoding="UTF-8"?>
<svg width="210px" height="32px" viewBox="0 0 210 32" version="1.1" xmlns="http://www.w3.org/2000/svg" xmlns:xlink="http://www.w3.org/1999/xlink">
    <!-- Generator: Sketch 45.1 (43504) - http://www.bohemiancoding.com/sketch -->
    <title>randstad_logo_white</title>
    <desc>Created with Sketch.</desc>
    <defs></defs>
    <g id="Symbols" stroke="none" stroke-width="1" fill="none" fill-rule="evenodd">
        <g id="header" transform="translate(-430.000000, -30.000000)" fill="#FFFFFF">
            <g id="randstad_logo_white">
                <g transform="translate(430.000000, 30.000000)">
                    <g id="Shape">
                        <path d="M193.807229,20.16 C193.743976,16.317 195.388554,12.411 199.563253,12.411 C203.737952,12.411 205.762048,16.38 205.762048,20.286 C205.762048,23.814 203.927711,28.098 199.626506,28.098 C195.451807,28.098 193.743976,23.436 193.807229,20.16 L193.807229,20.16 Z M205.888554,30.681 L209.557229,30.681 L209.557229,0 L205.698795,0 L205.698795,12.663 L205.635542,12.663 C204.433735,10.773 202.346386,9.324 198.677711,9.324 C192.605422,9.324 189.63253,14.238 189.63253,19.908 C189.63253,25.641 192.289157,31.248 198.614458,31.248 C202.346386,31.248 204.75,29.358 205.762048,27.846 L205.825301,27.846 L205.825301,30.681 L205.888554,30.681 Z" fill-rule="nonzero"></path>
                        <path d="M16.3192771,30.681 L21,30.681 L21,19.026 C21,18.396 20.746988,17.766 20.3042169,17.388 L13.3463855,10.521 C12.9036145,10.08 12.3343373,9.828 11.7018072,9.828 L0,9.828 L0,14.49 L12.8403614,14.49 C14.8012048,14.49 16.3192771,16.065 16.3192771,17.955 L16.3192771,30.681" fill-rule="nonzero"></path>
                        <path d="M27.8945783,30.681 L23.2138554,30.681 L23.2138554,19.026 C23.2138554,18.396 23.4668675,17.766 23.9096386,17.388 L30.8042169,10.521 C31.246988,10.08 31.8162651,9.828 32.4487952,9.828 L44.1506024,9.828 L44.1506024,14.49 L31.373494,14.49 C29.4759036,14.49 27.8945783,16.065 27.8945783,17.955 L27.8945783,30.681" fill-rule="nonzero"></path>
                        <path d="M65.2138554,9.828 L68.8192771,9.828 L68.8192771,13.041 L68.8825301,13.041 C69.8945783,10.899 72.1084337,9.324 74.3222892,9.324 C75.4608434,9.324 76.0301205,9.45 76.8524096,9.639 L76.8524096,13.104 C76.1566265,12.789 75.3975904,12.726 74.7018072,12.726 C71.2228916,12.726 69.0090361,16.002 69.0090361,21.231 L69.0090361,30.744 L65.1506024,30.744 L65.1506024,9.828" fill-rule="nonzero"></path>
                        <path d="M183.243976,22.554 C183.243976,25.704 181.21988,28.098 177.424699,28.098 C175.653614,28.098 173.503012,26.901 173.503012,24.696 C173.503012,20.979 178.689759,20.664 180.777108,20.664 C181.599398,20.664 182.421687,20.727 183.243976,20.727 L183.243976,22.554 L183.243976,22.554 Z M172.048193,14.553 C173.629518,13.23 175.96988,12.411 178.120482,12.411 C181.978916,12.411 183.307229,14.301 183.307229,17.892 C181.789157,17.829 180.713855,17.829 179.195783,17.829 C175.210843,17.829 169.454819,19.467 169.454819,24.696 C169.454819,29.295 172.61747,31.248 177.108434,31.248 C180.650602,31.248 182.674699,29.358 183.560241,28.098 L183.623494,28.098 L183.623494,30.744 L187.039157,30.744 L187.039157,17.955 C187.039157,12.222 184.635542,9.324 178.626506,9.324 C175.96988,9.324 173.692771,10.143 171.731928,11.277 L172.048193,14.553 Z" fill-rule="nonzero"></path>
                        <path d="M90.0090361,22.554 C90.0090361,25.704 87.9849398,28.098 84.189759,28.098 C82.4186747,28.098 80.2680723,26.901 80.2680723,24.696 C80.2680723,20.979 85.4548193,20.664 87.5421687,20.664 C88.3644578,20.664 89.186747,20.727 90.0090361,20.727 L90.0090361,22.554 L90.0090361,22.554 Z M78.75,14.553 C80.3313253,13.23 82.6716867,12.411 84.8222892,12.411 C88.6807229,12.411 90.0090361,14.301 90.0090361,17.892 C88.4909639,17.829 87.4156627,17.829 85.8975904,17.829 C81.9126506,17.829 76.1566265,19.467 76.1566265,24.696 C76.1566265,29.295 79.3192771,31.248 83.810241,31.248 C87.3524096,31.248 89.376506,29.358 90.2620482,28.098 L90.3253012,28.098 L90.3253012,30.744 L93.7409639,30.744 L93.7409639,17.955 C93.7409639,12.222 91.3373494,9.324 85.3283133,9.324 C82.6716867,9.324 80.3945783,10.143 78.4337349,11.277 L78.75,14.553 Z" fill-rule="nonzero"></path>
                        <path d="M97.0301205,9.828 L100.762048,9.828 L100.762048,13.104 L100.825301,13.104 C101.963855,10.71 104.810241,9.324 107.71988,9.324 C113.159639,9.324 115.563253,12.663 115.563253,18.27 L115.563253,30.681 L111.704819,30.681 L111.704819,19.845 C111.704819,14.994 110.629518,12.6 107.277108,12.411 C102.849398,12.411 100.888554,15.939 100.888554,21.042 L100.888554,30.681 L97.0301205,30.681 L97.0301205,9.828" fill-rule="nonzero"></path>
                        <path d="M140.611446,26.649 C142.129518,27.657 144.28012,28.161 145.418675,28.161 C147.189759,28.161 149.340361,27.405 149.340361,25.137 C149.340361,21.294 140.295181,21.609 140.295181,15.75 C140.295181,11.403 143.521084,9.324 147.695783,9.324 C149.466867,9.324 150.98494,9.702 152.503012,10.143 L152.186747,13.482 C151.301205,12.915 149.024096,12.411 148.138554,12.411 C146.177711,12.411 144.46988,13.23 144.46988,14.931 C144.46988,19.215 153.51506,17.955 153.51506,24.696 C153.51506,29.169 149.909639,31.185 146.177711,31.185 C144.216867,31.185 142.192771,30.996 140.421687,30.051 L140.611446,26.649" fill-rule="nonzero"></path>
                        <path d="M168.189759,12.915 L162.623494,12.915 L162.623494,24.381 C162.623494,26.838 164.078313,28.098 165.849398,28.098 C167.051205,28.098 167.873494,27.72 168.506024,27.342 L168.506024,30.618 C167.620482,30.87 166.481928,31.185 165.216867,31.185 C161.231928,31.185 158.76506,29.295 158.76506,25.137 L158.76506,12.915 L154.021084,12.915 L154.021084,9.828 L158.76506,9.828 L158.76506,4.977 L162.623494,3.717 L162.623494,9.765 L168.189759,9.765 L168.189759,12.915" fill-rule="nonzero"></path>
                        <path d="M122.268072,20.16 C122.204819,16.317 123.849398,12.411 128.024096,12.411 C132.198795,12.411 134.222892,16.38 134.222892,20.286 C134.222892,23.814 132.388554,28.098 128.087349,28.098 C123.912651,28.098 122.141566,23.436 122.268072,20.16 L122.268072,20.16 Z M134.349398,30.681 L138.018072,30.681 L138.018072,0 L134.159639,0 L134.159639,12.663 L134.096386,12.663 C132.894578,10.773 130.807229,9.324 127.138554,9.324 C121.066265,9.324 118.093373,14.238 118.093373,19.908 C118.093373,25.641 120.75,31.248 127.075301,31.248 C130.807229,31.248 133.210843,29.358 134.222892,27.846 L134.286145,27.846 L134.286145,30.681 L134.349398,30.681 Z" fill-rule="nonzero"></path>
                    </g>
                </g>
            </g>
        </g>
    </g>
</svg>