<svg xmlns="http://www.w3.org/2000/svg" width="117" height="18" viewBox="0 0 117 18">
    <g fill="#2175D9" fill-rule="nonzero">
        <path d="M107.978 11.226c-.035-2.14.881-4.315 3.207-4.315 2.326 0 3.454 2.21 3.454 4.386 0 1.964-1.022 4.35-3.419 4.35-2.325 0-3.277-2.596-3.242-4.42zm6.731 5.86h2.044V0h-2.15v7.052h-.035c-.67-1.053-1.832-1.86-3.876-1.86-3.383 0-5.04 2.737-5.04 5.894 0 3.193 1.48 6.315 5.005 6.315 2.079 0 3.418-1.053 3.982-1.895h.035v1.58h.035zM9.092 17.085H11.7v-6.49c0-.351-.141-.702-.388-.912L7.436 5.859a1.283 1.283 0 0 0-.916-.386H0v2.596h7.154c1.092 0 1.938.877 1.938 1.93v7.086M15.541 17.085h-2.608v-6.49c0-.351.141-.702.388-.912l3.841-3.824c.247-.246.564-.386.917-.386h6.52v2.596h-7.12c-1.057 0-1.938.877-1.938 1.93v7.086M36.333 5.473h2.01v1.789h.034c.564-1.193 1.798-2.07 3.031-2.07.634 0 .952.07 1.41.176v1.93c-.388-.176-.81-.211-1.198-.211-1.939 0-3.172 1.824-3.172 4.736v5.297h-2.15V5.473M102.093 12.56c0 1.754-1.128 3.087-3.242 3.087-.987 0-2.185-.667-2.185-1.895 0-2.07 2.89-2.245 4.053-2.245.458 0 .916.035 1.374.035v1.017zm-6.238-4.456c.881-.737 2.185-1.193 3.384-1.193 2.15 0 2.89 1.053 2.89 3.052-.846-.035-1.446-.035-2.291-.035-2.22 0-5.427.912-5.427 3.824 0 2.561 1.762 3.649 4.264 3.649 1.973 0 3.1-1.053 3.594-1.754h.036v1.473h1.903V9.998c0-3.192-1.34-4.806-4.688-4.806-1.48 0-2.748.456-3.84 1.088l.175 1.824zM50.148 12.56c0 1.754-1.128 3.087-3.242 3.087-.987 0-2.185-.667-2.185-1.895 0-2.07 2.89-2.245 4.052-2.245.459 0 .917.035 1.375.035v1.017zm-6.273-4.456c.881-.737 2.185-1.193 3.383-1.193 2.15 0 2.89 1.053 2.89 3.052-.846-.035-1.445-.035-2.29-.035-2.221 0-5.428.912-5.428 3.824 0 2.561 1.762 3.649 4.264 3.649 1.974 0 3.101-1.053 3.595-1.754h.035v1.473h1.903V9.998c0-3.192-1.339-4.806-4.687-4.806-1.48 0-2.749.456-3.841 1.088l.176 1.824zM54.06 5.473h2.079v1.824h.035c.634-1.333 2.22-2.105 3.841-2.105 3.031 0 4.37 1.86 4.37 4.982v6.911h-2.15v-6.034c0-2.701-.599-4.035-2.466-4.14-2.467 0-3.56 1.965-3.56 4.806v5.368h-2.15V5.473M78.34 14.84c.846.561 2.045.842 2.679.842.987 0 2.185-.421 2.185-1.684 0-2.14-5.04-1.965-5.04-5.227 0-2.421 1.798-3.579 4.124-3.579.986 0 1.832.21 2.678.456l-.176 1.86c-.494-.316-1.762-.597-2.256-.597-1.092 0-2.044.456-2.044 1.404 0 2.385 5.04 1.683 5.04 5.437 0 2.491-2.009 3.614-4.088 3.614-1.093 0-2.22-.105-3.207-.632l.106-1.894M93.706 7.192h-3.101v6.385c0 1.368.81 2.07 1.797 2.07.67 0 1.128-.21 1.48-.421v1.824c-.493.14-1.128.316-1.833.316-2.22 0-3.594-1.053-3.594-3.368V7.192h-2.643v-1.72h2.643v-2.7l2.15-.702v3.368h3.1v1.754M68.12 11.226c-.034-2.14.882-4.315 3.208-4.315s3.453 2.21 3.453 4.386c0 1.964-1.022 4.35-3.418 4.35-2.326 0-3.313-2.596-3.242-4.42zm6.732 5.86h2.044V0h-2.15v7.052h-.035c-.67-1.053-1.833-1.86-3.877-1.86-3.383 0-5.04 2.737-5.04 5.894 0 3.193 1.481 6.315 5.005 6.315 2.08 0 3.418-1.053 3.982-1.895h.036v1.58h.035z"/>
    </g>
</svg>
